<?xml version="1.0" standalone="no"?>
<!DOCTYPE svg PUBLIC "-//W3C//DTD SVG 20010904//EN"
 "http://www.w3.org/TR/2001/REC-SVG-20010904/DTD/svg10.dtd">
<svg version="1.0" xmlns="http://www.w3.org/2000/svg"
 width="522.000000pt" height="448.000000pt" viewBox="0 0 522.000000 448.000000"
 preserveAspectRatio="xMidYMid meet">

<g transform="translate(0.000000,448.000000) scale(0.100000,-0.100000)"
fill="#000000" stroke="none">
<path d="M2445 4430 c-11 -5 -39 -9 -62 -9 -52 -1 -106 -14 -243 -58 -249 -81
-467 -226 -642 -427 -105 -120 -236 -349 -276 -481 -11 -38 -28 -95 -37 -125
-30 -99 -41 -259 -29 -415 7 -77 17 -158 24 -180 11 -39 21 -78 39 -152 28
-120 54 -175 137 -306 24 -37 44 -70 44 -74 0 -14 89 -124 164 -202 178 -184
375 -306 623 -384 158 -50 236 -61 428 -61 259 0 439 42 670 154 154 75 265
160 399 302 113 120 151 171 214 283 21 39 53 95 70 125 42 76 79 191 104 323
27 149 21 436 -12 562 -115 442 -394 790 -796 995 -65 33 -124 60 -133 60 -8
0 -40 8 -70 19 -150 50 -230 61 -427 60 -93 0 -178 -4 -189 -9z m414 -355
c220 -46 453 -193 628 -396 96 -112 131 -167 173 -274 44 -109 50 -130 61
-205 46 -306 -11 -574 -175 -820 -62 -95 -225 -256 -302 -300 -95 -55 -204
-106 -269 -128 -29 -9 -45 -14 -160 -44 -63 -16 -296 -17 -350 -1 -22 6 -67
17 -100 24 -249 49 -478 204 -657 444 -137 182 -187 320 -208 567 -19 231 34
453 151 631 102 156 318 342 479 414 123 54 246 87 410 107 63 8 244 -3 319
-19z"/>
<path d="M2873 3712 c-16 -16 -53 -76 -82 -133 -65 -124 -90 -170 -102 -184
-8 -11 -67 -123 -140 -265 -21 -41 -45 -86 -53 -100 -8 -14 -26 -47 -39 -75
-23 -47 -100 -195 -125 -240 -59 -107 -172 -359 -172 -384 0 -41 25 -52 123
-54 l81 -2 37 60 c21 33 45 80 54 105 10 25 30 66 46 91 16 25 34 61 41 80 6
19 26 55 43 81 18 26 35 58 39 72 3 14 24 54 46 87 22 34 40 66 40 71 0 5 11
25 23 46 13 20 60 107 104 192 44 85 98 184 120 220 21 36 68 116 102 178 l64
114 -21 20 c-29 29 -87 48 -149 48 -43 0 -56 -4 -80 -28z"/>
<path d="M768 3912 c-40 -29 -97 -99 -286 -347 -67 -88 -162 -212 -212 -275
-228 -291 -228 -292 -215 -370 8 -47 60 -122 190 -270 50 -58 135 -163 189
-235 254 -342 337 -437 391 -451 39 -10 113 15 150 50 38 36 60 100 51 148 -3
18 -28 60 -55 93 -171 209 -539 673 -552 697 -7 13 -2 29 18 60 38 59 256 347
373 493 221 276 221 277 188 344 -31 62 -76 91 -142 91 -39 -1 -59 -7 -88 -28z"/>
<path d="M4318 3923 c-49 -25 -82 -79 -82 -133 0 -51 2 -55 132 -212 109 -132
169 -209 207 -264 22 -32 63 -85 90 -119 85 -102 145 -192 145 -218 0 -26 -56
-107 -133 -194 -62 -69 -159 -193 -187 -239 -14 -21 -67 -93 -119 -159 -139
-177 -171 -257 -137 -340 17 -39 52 -60 118 -70 96 -15 142 25 328 285 107
149 215 291 363 475 72 91 132 176 139 197 14 48 4 95 -32 149 -42 64 -363
465 -530 664 -41 50 -87 107 -102 127 -16 20 -42 44 -59 52 -39 19 -104 19
-141 -1z"/>
<path d="M398 1158 c-22 -34 -13 -891 9 -927 l15 -24 177 6 c265 9 335 34 472
169 75 73 81 83 114 174 42 115 46 189 14 284 -22 67 -78 158 -125 202 -32 29
-158 98 -180 98 -8 0 -22 4 -32 9 -31 16 -185 31 -319 31 -125 0 -131 -1 -145
-22z m422 -206 c140 -46 213 -164 187 -304 -29 -156 -104 -220 -274 -231 -51
-4 -106 -4 -122 -1 l-31 7 0 279 0 279 98 -7 c53 -3 117 -13 142 -22z"/>
<path d="M1438 1146 c-18 -30 -19 -51 -15 -456 3 -438 6 -473 44 -481 31 -7
601 6 608 13 14 13 23 93 16 133 l-6 40 -215 5 c-118 3 -221 9 -227 13 -9 5
-13 36 -13 91 l0 82 193 -1 192 0 0 85 0 85 -175 2 c-109 2 -183 7 -197 15
-20 10 -23 19 -23 72 0 34 3 78 6 99 l7 37 207 0 c207 0 208 0 214 23 8 31 7
150 -2 163 -5 9 -91 12 -301 11 l-294 -1 -19 -30z"/>
<path d="M2218 1166 c-21 -15 -23 -43 -7 -83 6 -15 15 -37 19 -48 4 -11 17
-44 29 -74 12 -29 21 -60 21 -67 0 -8 4 -22 9 -32 5 -9 18 -42 29 -72 57 -158
131 -338 184 -448 66 -137 79 -149 149 -133 55 13 83 41 110 114 12 34 35 86
51 116 15 30 28 61 28 70 0 9 16 50 36 91 20 41 47 104 61 140 14 36 28 70 33
75 4 6 18 39 30 75 12 36 39 101 61 145 21 45 42 95 45 113 l7 32 -96 0 c-94
0 -96 0 -121 -31 -14 -17 -29 -43 -32 -57 -3 -15 -9 -36 -14 -47 -4 -11 -22
-65 -39 -120 -18 -55 -36 -110 -41 -122 -16 -37 -32 -77 -41 -100 -29 -75 -29
-75 -80 -172 -21 -39 -15 -49 -64 99 -15 47 -39 117 -52 155 -13 39 -44 131
-69 205 -69 211 -53 190 -148 190 -51 -1 -87 -5 -98 -14z"/>
<path d="M3320 1167 c-38 -30 -40 -57 -40 -482 0 -424 3 -458 39 -470 9 -3
151 -6 314 -7 251 -2 300 0 308 13 5 8 9 46 9 85 0 94 -6 99 -124 100 -50 1
-148 4 -218 9 l-128 7 0 62 c0 110 -16 102 193 94 100 -4 185 -4 189 0 11 12
19 156 9 172 -8 11 -49 16 -198 21 -103 4 -189 8 -190 8 -1 1 -1 18 1 39 2 20
4 66 5 100 l1 64 208 -3 c114 -2 213 0 220 4 13 9 17 132 6 175 l-6 22 -292 0
c-213 -1 -295 -4 -306 -13z"/>
<path d="M4172 1160 c-9 -15 -12 -126 -12 -455 0 -466 2 -485 50 -500 28 -9
126 13 142 32 9 12 13 54 13 149 1 130 2 134 27 161 14 16 29 39 33 52 7 23 8
22 49 -25 63 -73 219 -279 238 -313 22 -40 53 -51 143 -51 87 0 125 14 125 45
0 14 -59 93 -160 214 -175 210 -220 271 -220 297 0 9 15 33 34 53 42 45 117
133 176 207 25 31 60 74 79 95 19 22 31 43 27 47 -10 9 -159 16 -190 8 -13 -3
-47 -37 -79 -78 -31 -40 -79 -102 -107 -138 -28 -36 -65 -86 -81 -112 -29 -44
-40 -53 -63 -49 -4 1 -14 -3 -21 -9 -11 -9 -14 23 -15 182 0 139 -4 194 -13
200 -7 4 -46 8 -87 8 -64 0 -77 -3 -88 -20z"/>
</g>
</svg>
